PathFileType	4	(X/Y/Z)	C:\Users\Basilio\Documents\Thesis Gigler\squatting_fais\c3dfiles\054\SLS_back_pre3\markers_experimental.trc
DataRate	CameraRate	NumFrames	NumMarkers	Units	OrigDataRate	OrigDataStartFrame	OrigNumFrames
200.000000	200.000000	4	61	mm	200.000000	736	1472
Frame#	Time	FHD			LBHD			RBHD			C7			T10			CLAV			LSHO			LUUPA			LMUPA			LDUPA			LLEP			LMEP			LRAD			LUL			LRFIN			RSHO			RUPA1			RMUPA			RDUPA			RLEP			RMEP			RRAD			RUL			RUFIN			LASI			RASI			USACR			LSACR			RSACR			LTHI1			LTHI2			LTHI3			LTHI4			LLFC			LMFC			LTIB1			LTIB2			LTIB3			LTIB4			LLMAL			LMMAL			LHEE			LMT1			LMT2			LMT5			RTHI			RTHI2			RTHI3			RTHI4			RLFC			RMFC			RTIB1			RTIB2			RTIB3			RTIB4			RLMAL			RMMAL			RHEE			RMT1			RMT2			RMT5			
		X1	Y1	Z1	X2	Y2	Z2	X3	Y3	Z3	X4	Y4	Z4	X5	Y5	Z5	X6	Y6	Z6	X7	Y7	Z7	X8	Y8	Z8	X9	Y9	Z9	X10	Y10	Z10	X11	Y11	Z11	X12	Y12	Z12	X13	Y13	Z13	X14	Y14	Z14	X15	Y15	Z15	X16	Y16	Z16	X17	Y17	Z17	X18	Y18	Z18	X19	Y19	Z19	X20	Y20	Z20	X21	Y21	Z21	X22	Y22	Z22	X23	Y23	Z23	X24	Y24	Z24	X25	Y25	Z25	X26	Y26	Z26	X27	Y27	Z27	X28	Y28	Z28	X29	Y29	Z29	X30	Y30	Z30	X31	Y31	Z31	X32	Y32	Z32	X33	Y33	Z33	X34	Y34	Z34	X35	Y35	Z35	X36	Y36	Z36	X37	Y37	Z37	X38	Y38	Z38	X39	Y39	Z39	X40	Y40	Z40	X41	Y41	Z41	X42	Y42	Z42	X43	Y43	Z43	X44	Y44	Z44	X45	Y45	Z45	X46	Y46	Z46	X47	Y47	Z47	X48	Y48	Z48	X49	Y49	Z49	X50	Y50	Z50	X51	Y51	Z51	X52	Y52	Z52	X53	Y53	Z53	X54	Y54	Z54	X55	Y55	Z55	X56	Y56	Z56	X57	Y57	Z57	X58	Y58	Z58	X59	Y59	Z59	X60	Y60	Z60	X61	Y61	Z61	

737	3.68	-45.0708122253418	1546.241088867188	-1099.65283203125	-209.5475769042969	1497.287719726563	-1166.765869140625	-224.2548217773438	1500.360717773438	-1027.144775390625	-269.3989868164063	1354.17529296875	-1077.746215820313	-407.4324035644532	1062.084716796875	-1054.570068359375	-145.1560668945313	1262.645385742188	-1088.29736328125	-198.1655578613282	1341.262573242188	-1227.465942382813	-59.35526275634767	1219.060791015625	-1351.339111328125	-25.81207847595216	1252.029541015625	-1337.836547851563	8.278569221496584	1208.128173828125	-1360.950317382813	66.7582473754883	1209.554931640625	-1357.7646484375	65.02040863037111	1144.711181640625	-1313.605224609375	318.7900085449219	1231.010986328125	-1266.725952148438	337.9425354003907	1197.889404296875	-1334.277465820313	411.6062927246095	1251.526977539063	-1281.181396484375	-186.2350616455078	1346.298095703125	-948.1116333007815	-37.9926986694336	1238.390991210938	-815.5869750976565	-2.361051559448243	1267.241455078125	-829.3533935546877	29.53014373779298	1220.84619140625	-804.9461059570315	74.08210754394533	1214.022338867188	-807.816101074219	68.00166320800783	1154.953125	-855.2730712890627	334.3873901367188	1256.689208984375	-923.8801269531252	340.4073181152344	1225.717651367188	-848.9123535156252	411.4931945800782	1284.845092773438	-914.3667602539065	-296.6359252929688	849.7566528320315	-1177.253662109375	-297.8803100585938	837.8288574218752	-928.5151367187502	-444.3023681640626	985.5478515625002	-1049.84375	-462.6262207031251	959.0650024414065	-1079.41650390625	-458.889129638672	955.5902099609377	-1021.763671875	-306.3244323730469	655.6721801757814	-1253.5849609375	-232.3500518798829	614.5916748046876	-1243.886108398438	-198.2133483886719	645.7546997070314	-1236.191284179688	-222.6065368652344	557.2413330078126	-1227.972290039063	-141.0610046386719	445.8820190429689	-1184.97998046875	-118.4187469482422	472.1416625976564	-1050.219604492188	-160.2559814453125	302.2996520996094	-1101.326904296875	-223.9825744628907	269.7166442871094	-1154.259643554688	-192.9687652587891	257.9624023437501	-1124.560668945313	-236.3384857177735	202.8838806152344	-1077.670532226563	-353.2018432617188	105.0883178710938	-1104.852172851563	-320.2421264648438	131.8104095458985	-1013.687866210938	-427.0392456054689	101.3924255371094	-1043.224243164063	-216.269027709961	55.65496826171876	-1020.073791503906	-208.0425567626954	53.46819305419923	-1069.60595703125	-260.0457458496094	37.47378158569337	-1120.333251953125	-414.7187805175782	562.3018798828126	-835.4414062500002	-379.9450683593751	504.7133789062501	-830.8735351562502	-346.6828613281251	501.3641967773439	-836.4146728515627	-415.2805480957032	429.400848388672	-846.0620727539065	-440.6402282714845	383.2718811035157	-852.7693481445315	-386.0724487304689	344.7587890625001	-977.7181396484377	-520.1849975585939	310.9398803710938	-884.1932373046877	-602.7191772460939	377.6936035156251	-866.847351074219	-604.6882324218751	333.3790893554688	-881.4677734375002	-646.0333862304689	320.8551025390626	-920.117614746094	-822.1560668945315	376.8220825195313	-939.7107543945315	-782.3151855468752	342.8923339843751	-1021.075073242188	-814.9214477539065	446.4782714843751	-995.8748779296877	-886.8428955078127	242.5151824951172	-1048.582885742188	-902.2902832031252	235.4525909423829	-1001.831665039063	-926.0299072265627	284.9572143554688	-960.705993652344	
738	3.685	-44.74761962890626	1544.988403320313	-1099.546997070313	-209.2047882080079	1496.0595703125	-1166.716186523438	-224.1327362060547	1499.22216796875	-1026.955688476563	-268.9968566894532	1352.888061523438	-1077.793334960938	-407.4384765625001	1061.049438476563	-1054.497680664063	-144.9873352050782	1261.43310546875	-1088.3701171875	-197.6859588623047	1340.103515625	-1227.502075195313	-58.99247360229494	1217.950561523438	-1351.205932617188	-25.27292251586915	1250.861694335938	-1337.654174804688	8.261220932006838	1207.145263671875	-1360.922485351563	67.18586730957033	1208.502197265625	-1357.609008789063	65.0883026123047	1143.884765625	-1313.522827148438	319.3168029785157	1230.120239257813	-1266.498779296875	338.2831726074219	1196.955810546875	-1334.0419921875	411.9371643066407	1250.636962890625	-1280.955688476563	-185.9633178710938	1345.189453125	-948.0635375976565	-37.71636199951173	1237.228393554688	-815.561706542969	-2.114415168762207	1266.127563476563	-829.4582519531252	29.91107749938966	1219.675537109375	-805.095397949219	74.3296585083008	1213.159423828125	-807.7335205078127	68.3270721435547	1153.896850585938	-855.272644042969	334.5162658691407	1255.917602539063	-923.855163574219	340.7283020019532	1225.024047851563	-848.9952392578127	411.8321838378907	1284.100341796875	-914.534118652344	-296.8202209472657	848.7900390625002	-1177.410034179688	-297.8265686035157	836.9378662109377	-928.6815185546877	-444.2843017578126	984.2523193359377	-1049.791015625	-462.8370056152345	958.0140380859377	-1079.353881835938	-459.1702270507814	954.6986083984377	-1021.534118652344	-306.5747375488282	654.7294921875001	-1253.475830078125	-232.2661132812501	614.1998291015626	-1243.783935546875	-198.0982055664063	645.3364257812501	-1236.02001953125	-222.3696594238282	556.7425537109376	-1227.786865234375	-140.7025909423828	445.6361389160157	-1184.888671875	-118.310546875	471.6713256835939	-1050.296020507813	-159.8582458496094	302.2956237792969	-1101.0390625	-223.7823486328126	269.6172790527344	-1154.166381835938	-192.5604553222657	257.7162170410157	-1124.428344726563	-236.2020111083985	202.7850799560547	-1077.62646484375	-353.2157897949219	105.008544921875	-1104.829711914063	-320.2192077636719	131.8314361572266	-1013.722900390625	-427.0360717773439	101.3921966552735	-1043.2548828125	-216.2639160156251	55.69091415405275	-1020.086059570313	-208.0358276367188	53.47909164428712	-1069.623413085938	-260.1021728515626	37.45983886718751	-1120.338989257813	-415.070281982422	561.0546264648439	-835.3892822265627	-379.9851684570313	503.6410522460939	-831.0545654296877	-346.8771362304688	500.2353515625001	-836.6413574218752	-415.4055480957032	428.4258117675782	-846.120056152344	-440.7147827148439	382.3831176757813	-853.0035400390627	-386.4714355468751	343.9756469726563	-978.0838012695315	-520.4469604492189	310.0997924804688	-884.398376464844	-602.9335327148439	376.6621093750001	-866.8462524414065	-604.9893798828126	332.4085388183594	-881.2983398437502	-646.2518310546876	319.7740783691407	-920.3225708007815	-822.3775634765627	376.1077270507813	-939.6098632812502	-782.6274414062502	342.3853454589844	-1021.045288085938	-815.145935058594	445.9216308593751	-995.538269042969	-887.0525512695315	242.0272521972657	-1048.613403320313	-902.6656494140627	234.9279785156251	-1001.767028808594	-926.342956542969	284.4125671386719	-960.6132812500002	
739	3.69	-44.57625961303712	1543.800415039063	-1099.527709960938	-209.0431823730469	1494.796630859375	-1166.614379882813	-223.9417419433594	1497.902221679688	-1026.961303710938	-268.7906799316407	1351.847412109375	-1077.673461914063	-407.391326904297	1060.079223632813	-1054.425415039063	-144.8467102050782	1260.171508789063	-1088.334716796875	-197.5069580078126	1338.95263671875	-1227.34765625	-58.73138427734376	1216.96826171875	-1351.119384765625	-24.79148864746094	1250.024291992188	-1337.597412109375	8.871636390686037	1206.1416015625	-1360.79345703125	67.61893463134767	1207.445190429688	-1357.479614257813	65.83673095703126	1142.709228515625	-1313.2802734375	319.6431274414063	1229.246948242188	-1266.302856445313	338.5870666503907	1195.984252929688	-1333.847045898438	412.6652832031251	1249.622802734375	-1280.683837890625	-185.7298736572266	1343.932983398438	-948.0612792968752	-37.62170028686524	1236.114501953125	-815.5030517578127	-2.039099454879761	1265.11181640625	-829.2973632812502	30.16414260864259	1218.636962890625	-804.8791503906252	74.56436157226564	1211.927734375	-807.765808105469	68.71833801269533	1152.822631835938	-855.1101684570315	334.6848754882813	1254.954833984375	-923.9988403320315	341.0137939453126	1224.140869140625	-849.1172485351565	412.2180786132814	1283.227783203125	-914.7070922851565	-297.1464233398438	847.809753417969	-1177.456298828125	-298.1123962402344	835.6367187500002	-928.575866699219	-444.4795227050782	983.5283203125002	-1049.649169921875	-462.7176208496095	957.1233520507815	-1079.326538085938	-459.2955017089845	953.745544433594	-1021.451477050781	-306.5493164062501	654.1283569335939	-1253.333251953125	-232.1432800292969	613.7521362304689	-1243.66650390625	-198.1235656738282	644.8768920898439	-1235.980712890625	-222.269027709961	556.3638916015626	-1227.745727539063	-140.3648376464844	445.487030029297	-1184.84765625	-118.1279296875	471.5217590332032	-1050.275390625	-159.6402587890625	302.0314941406251	-1100.906860351563	-223.5098266601563	269.4427490234376	-1154.1611328125	-192.4021148681641	257.4324951171876	-1124.352172851563	-236.0888214111329	202.6454315185547	-1077.62451171875	-353.1125488281251	105.0258178710938	-1104.890991210938	-320.1921997070313	131.799301147461	-1013.737854003906	-427.0172119140626	101.3827819824219	-1043.280395507813	-216.2169952392579	55.7464942932129	-1020.101501464844	-208.0369873046876	53.45864486694337	-1069.621826171875	-260.4491271972657	37.39981079101563	-1120.294799804688	-415.0666809082032	560.1163330078126	-835.4726562500002	-380.2596435546876	502.7064514160157	-831.029724121094	-346.9096984863282	499.3018493652345	-836.7854003906252	-415.6000976562501	427.268280029297	-846.0306396484377	-440.7688598632814	381.2288513183594	-853.0679321289065	-386.5501098632814	342.8924560546876	-978.0056152343752	-520.8439331054689	309.2262878417969	-884.4107666015627	-603.0638427734376	375.7309570312501	-866.7822265625002	-605.1177368164064	331.4549255371094	-881.2915649414065	-646.4907226562501	319.1438598632813	-920.1179199218752	-822.5161132812502	375.4354553222657	-939.4055175781252	-782.8695068359377	341.7243957519532	-1020.928771972656	-815.3198852539065	445.2498779296876	-995.2930908203127	-887.396667480469	241.4608459472657	-1048.530883789063	-902.874938964844	234.2976226806641	-1001.9306640625	-926.5264282226565	283.7568359375001	-960.4773559570315	
740	3.695	-44.26126098632813	1542.681518554688	-1099.4326171875	-208.8576812744141	1493.758911132813	-1166.553833007813	-223.7402038574219	1496.74658203125	-1026.77587890625	-268.5218811035157	1350.602294921875	-1077.62939453125	-407.3845825195314	1059.042236328125	-1054.340942382813	-144.4487457275391	1259.001342773438	-1088.269775390625	-196.8844451904297	1337.779418945313	-1227.149536132813	-58.35343170166017	1215.78759765625	-1350.93115234375	-25.02373504638673	1248.8720703125	-1337.499755859375	9.27212715148926	1205.123657226563	-1360.71142578125	67.99114227294923	1206.472045898438	-1357.318359375	66.25331878662111	1141.576171875	-1313.197143554688	319.7846374511719	1228.208251953125	-1266.065185546875	339.1977233886719	1195.0654296875	-1333.645874023438	412.7529296875001	1248.7890625	-1280.488525390625	-185.4397125244141	1342.851318359375	-948.0213012695315	-37.22654724121094	1235.0400390625	-815.4802856445315	-1.139143824577332	1263.894287109375	-829.593933105469	30.63474082946778	1217.614624023438	-804.9455566406252	74.79900360107423	1211.126098632813	-807.835388183594	68.91320037841798	1151.8583984375	-855.137878417969	334.9636535644532	1254.0966796875	-924.1864013671877	341.2627258300782	1223.285278320313	-849.1159667968752	412.3582763671876	1282.718872070313	-914.6909790039065	-297.5127258300782	846.807312011719	-1177.599609375	-298.2126159667969	834.5679931640627	-928.6578369140627	-444.3304138183595	982.5607910156252	-1049.611206054688	-463.0968017578126	956.120056152344	-1079.056030273438	-459.2277832031251	952.6953735351565	-1021.416870117188	-307.0078430175782	653.7093505859376	-1253.396850585938	-232.0108947753907	613.2202758789064	-1243.575561523438	-198.119125366211	644.4347534179689	-1235.881103515625	-222.0816345214844	555.9168701171876	-1227.579467773438	-139.8434448242188	445.1902770996095	-1184.786987304688	-117.890007019043	471.3383178710939	-1050.248657226563	-159.5604553222657	301.7623291015626	-1100.878173828125	-223.3120422363282	269.2847900390626	-1154.335205078125	-192.5015563964844	257.2750549316407	-1124.308837890625	-235.9957580566407	202.5079803466797	-1077.6689453125	-353.1458740234376	105.0221405029297	-1104.91796875	-320.2017211914063	131.7611389160157	-1013.833251953125	-427.0714111328126	101.3851928710938	-1043.3583984375	-216.2227020263672	55.7964324951172	-1020.098510742188	-208.0451202392579	53.45542526245119	-1069.609985351563	-260.0994567871094	37.3812484741211	-1120.389404296875	-415.1781311035157	558.9228515625001	-835.4569091796877	-380.3018493652344	501.3978881835939	-831.2031250000002	-347.1947937011719	498.1387023925782	-836.8045043945315	-415.703338623047	426.1441650390626	-846.1311035156252	-441.0447387695314	380.2099304199219	-853.0669555664065	-386.9157104492189	341.7894592285157	-978.082214355469	-521.0942382812501	308.0787658691407	-884.6699829101565	-603.1146240234376	374.9020080566407	-866.7404785156252	-605.3469238281251	330.5410156250001	-881.3289794921877	-646.9051513671876	318.0464172363282	-919.9378662109377	-822.7569580078127	374.7560729980469	-939.2510375976565	-783.1243896484377	341.1987609863282	-1020.863891601563	-815.4222412109377	444.5982971191407	-995.0518188476565	-887.9016113281252	240.8862762451172	-1048.540161132813	-903.3443603515627	233.6773986816407	-1001.867065429688	-926.7234497070315	283.1111755371094	-960.3546142578127	
